<?xml version="1.0" encoding="UTF-8" standalone="no"?>
<!DOCTYPE svg PUBLIC "-//W3C//DTD SVG 1.1//EN" "http://www.w3.org/Graphics/SVG/1.1/DTD/svg11.dtd">
<svg version="1.1" xmlns="http://www.w3.org/2000/svg" xmlns:xlink="http://www.w3.org/1999/xlink" preserveAspectRatio="xMidYMid meet" viewBox="0 0 640 640" width="640" height="640"><defs><path d="M227.81 424.69C399.69 224.69 425.73 328.85 418.44 265.31C413.58 222.95 383.02 193.44 326.77 176.77L171.56 383.02" id="a7qmwXw5LP"></path><path d="M226.77 424.69L171.56 383.02" id="b8LorQodL"></path><path d="M570.52 138.75C570.52 191.93 527.35 235.1 474.17 235.1C420.99 235.1 377.81 191.93 377.81 138.75C377.81 85.57 420.99 42.4 474.17 42.4C527.35 42.4 570.52 85.57 570.52 138.75Z" id="a430IHLOkp"></path><path d="M474.17 552.81C521.74 467.4 460.1 455.24 289.27 516.35C118.44 577.47 56.28 577.47 102.81 516.35L192.4 411.15" id="baEo6ltoh"></path><path d="" id="c5pyEUtcSQ"></path><path d="M547.6 202.81L401.77 73.65" id="buZ6PqDbr"></path></defs><g><g><g><use xlink:href="#a7qmwXw5LP" opacity="1" fill="#000000" fill-opacity="1"></use><g><use xlink:href="#a7qmwXw5LP" opacity="1" fill-opacity="0" stroke="#000000" stroke-width="1" stroke-opacity="1"></use></g></g><g><g><use xlink:href="#b8LorQodL" opacity="1" fill-opacity="0" stroke="#000000" stroke-width="1" stroke-opacity="1"></use></g></g><g><use xlink:href="#a430IHLOkp" opacity="1" fill="#000000" fill-opacity="1"></use></g><g><g><use xlink:href="#baEo6ltoh" opacity="1" fill-opacity="0" stroke="#000000" stroke-width="10" stroke-opacity="1"></use></g></g><g><g><use xlink:href="#c5pyEUtcSQ" opacity="1" fill-opacity="0" stroke="#000000" stroke-width="3" stroke-opacity="1"></use></g></g><g><g><use xlink:href="#buZ6PqDbr" opacity="1" fill-opacity="0" stroke="#ffffff" stroke-width="7" stroke-opacity="1"></use></g></g></g></g></svg>